<?xml version="1.0" standalone="no"?>
<!DOCTYPE svg PUBLIC "-//W3C//DTD SVG 20010904//EN"
 "http://www.w3.org/TR/2001/REC-SVG-20010904/DTD/svg10.dtd">
<svg version="1.0" xmlns="http://www.w3.org/2000/svg"
 width="600" height="600" viewBox="0 0 600 600"
 preserveAspectRatio="xMidYMid meet" fill="blueviolet">
   <style>
    .logo {
        font: bold 80px Manrope;
        paint-order: stroke;
        stroke-width: 5px;
        stroke-linecap: butt;
        stroke-linejoin: miter;
        font-weight: 800;
    }
    .title {
      font: bold 60px Manrope;
    }
  </style>
  <defs>
    <linearGradient id="linear" x1="100%" y1="0%" x2="0%" y2="0%">
      <stop offset="0%" style="stop-color:#888BF4;stop-opacity:1" />
      <stop offset="100%" style="stop-color:#5151C6;stop-opacity:1" />
    </linearGradient>
  </defs>
<g transform="translate(0.000000,1034.000000) scale(0.100000,-0.100000)" fill="url(#linear)">
<path d="M1961 9895 c-28 -13 -32 -19 -27 -40 4 -14 22 -50 42 -80 l35 -55
528 0 c610 0 566 7 576 -95 3 -33 7 -73 10 -90 2 -16 7 -52 10 -80 4 -27 10
-84 15 -125 5 -41 19 -156 30 -255 12 -99 23 -191 25 -205 2 -14 6 -62 10
-107 l8 -82 -29 -12 c-18 -7 -112 -12 -256 -13 -171 -1 -230 -4 -240 -14 -10
-10 -7 -25 21 -78 19 -36 43 -72 55 -79 16 -10 69 -13 231 -11 116 1 221 5
235 9 51 14 105 62 133 117 26 51 28 61 23 135 -4 68 -18 195 -41 360 -2 22
-14 108 -25 190 -27 204 -38 289 -46 365 -14 145 -88 230 -211 246 -26 3 -280
8 -563 10 -442 3 -520 2 -549 -11z m1159 -34"/>
<path d="M1405 9895 c-5 -2 -22 -6 -38 -9 -37 -9 -104 -70 -129 -120 -15 -29
-23 -72 -29 -151 -4 -60 -13 -168 -19 -240 -16 -202 -28 -349 -39 -485 -6 -69
-17 -201 -26 -295 -18 -206 -19 -335 -3 -372 24 -54 61 -93 114 -119 46 -22
64 -26 108 -21 67 7 90 21 196 122 115 110 199 165 320 213 119 47 171 53 482
59 231 4 300 9 309 19 8 10 3 27 -21 69 -52 91 -30 85 -313 85 -180 0 -274 -4
-327 -15 -222 -43 -374 -122 -547 -287 -92 -88 -123 -104 -151 -76 -18 18 -15
87 28 599 62 741 68 803 75 821 10 25 35 28 267 28 l218 0 6 24 c4 16 -3 38
-21 67 -58 92 -43 87 -259 88 -105 0 -195 -2 -201 -4z"/>
</g>
<text x="165" y="150" class="logo" stroke="" fill="url(#linear)">OC</text>
</svg>
